<mxfile host="app.diagrams.net" modified="2022-05-30T02:42:49.297Z" agent="5.0 (Windows NT 10.0; Win64; x64) AppleWebKit/537.36 (KHTML, like Gecko) Chrome/102.0.5005.61 Safari/537.36" etag="u2R4O87HHrVGmyX2afUC" version="18.0.2" type="github">
  <diagram id="-A6o6YZZ-7szZk52tGtJ" name="Page-1">
    <mxGraphModel dx="1632" dy="482" grid="1" gridSize="10" guides="1" tooltips="1" connect="1" arrows="1" fold="1" page="1" pageScale="1" pageWidth="850" pageHeight="1100" math="0" shadow="0">
      <root>
        <mxCell id="0" />
        <mxCell id="1" parent="0" />
        <mxCell id="FpnxJUQAzf8VFt7mKJb3-15" style="edgeStyle=orthogonalEdgeStyle;rounded=0;orthogonalLoop=1;jettySize=auto;html=1;exitX=0.5;exitY=0;exitDx=0;exitDy=0;entryX=0.5;entryY=1;entryDx=0;entryDy=0;fontSize=14;" parent="1" source="FpnxJUQAzf8VFt7mKJb3-2" target="FpnxJUQAzf8VFt7mKJb3-9" edge="1">
          <mxGeometry relative="1" as="geometry" />
        </mxCell>
        <mxCell id="FpnxJUQAzf8VFt7mKJb3-17" style="edgeStyle=orthogonalEdgeStyle;rounded=0;orthogonalLoop=1;jettySize=auto;html=1;exitX=0.5;exitY=0;exitDx=0;exitDy=0;entryX=0.5;entryY=1;entryDx=0;entryDy=0;fontSize=14;" parent="1" source="FpnxJUQAzf8VFt7mKJb3-2" target="FpnxJUQAzf8VFt7mKJb3-13" edge="1">
          <mxGeometry relative="1" as="geometry">
            <Array as="points">
              <mxPoint x="155" y="220" />
              <mxPoint x="265" y="220" />
            </Array>
          </mxGeometry>
        </mxCell>
        <mxCell id="FpnxJUQAzf8VFt7mKJb3-19" style="edgeStyle=orthogonalEdgeStyle;rounded=0;orthogonalLoop=1;jettySize=auto;html=1;exitX=1;exitY=0.5;exitDx=0;exitDy=0;fontSize=14;" parent="1" source="FpnxJUQAzf8VFt7mKJb3-2" target="FpnxJUQAzf8VFt7mKJb3-7" edge="1">
          <mxGeometry relative="1" as="geometry" />
        </mxCell>
        <mxCell id="FpnxJUQAzf8VFt7mKJb3-61" style="edgeStyle=orthogonalEdgeStyle;rounded=0;orthogonalLoop=1;jettySize=auto;html=1;exitX=0.5;exitY=0;exitDx=0;exitDy=0;entryX=0.5;entryY=1;entryDx=0;entryDy=0;fontSize=18;" parent="1" source="FpnxJUQAzf8VFt7mKJb3-2" target="FpnxJUQAzf8VFt7mKJb3-11" edge="1">
          <mxGeometry relative="1" as="geometry" />
        </mxCell>
        <mxCell id="FpnxJUQAzf8VFt7mKJb3-2" value="&lt;b&gt;&lt;font style=&quot;font-size: 18px;&quot;&gt;Persona&lt;/font&gt;&lt;/b&gt;" style="rounded=0;whiteSpace=wrap;html=1;" parent="1" vertex="1">
          <mxGeometry x="95" y="290" width="120" height="60" as="geometry" />
        </mxCell>
        <mxCell id="FpnxJUQAzf8VFt7mKJb3-41" style="edgeStyle=orthogonalEdgeStyle;rounded=0;orthogonalLoop=1;jettySize=auto;html=1;exitX=0.75;exitY=1;exitDx=0;exitDy=0;entryX=0.5;entryY=0;entryDx=0;entryDy=0;fontSize=18;" parent="1" source="FpnxJUQAzf8VFt7mKJb3-3" target="FpnxJUQAzf8VFt7mKJb3-39" edge="1">
          <mxGeometry relative="1" as="geometry" />
        </mxCell>
        <mxCell id="FpnxJUQAzf8VFt7mKJb3-42" style="edgeStyle=orthogonalEdgeStyle;rounded=0;orthogonalLoop=1;jettySize=auto;html=1;exitX=0.5;exitY=1;exitDx=0;exitDy=0;entryX=0.5;entryY=0;entryDx=0;entryDy=0;fontSize=18;" parent="1" source="FpnxJUQAzf8VFt7mKJb3-3" target="FpnxJUQAzf8VFt7mKJb3-40" edge="1">
          <mxGeometry relative="1" as="geometry">
            <Array as="points">
              <mxPoint x="760" y="580" />
              <mxPoint x="700" y="580" />
            </Array>
          </mxGeometry>
        </mxCell>
        <mxCell id="FpnxJUQAzf8VFt7mKJb3-3" value="Habilidades" style="rounded=0;whiteSpace=wrap;html=1;fontSize=18;" parent="1" vertex="1">
          <mxGeometry x="700" y="500" width="120" height="60" as="geometry" />
        </mxCell>
        <mxCell id="FpnxJUQAzf8VFt7mKJb3-55" style="edgeStyle=orthogonalEdgeStyle;rounded=0;orthogonalLoop=1;jettySize=auto;html=1;exitX=0.75;exitY=1;exitDx=0;exitDy=0;entryX=1;entryY=0;entryDx=0;entryDy=0;fontSize=18;" parent="1" source="FpnxJUQAzf8VFt7mKJb3-4" target="FpnxJUQAzf8VFt7mKJb3-28" edge="1">
          <mxGeometry relative="1" as="geometry">
            <Array as="points">
              <mxPoint x="115" y="560" />
            </Array>
          </mxGeometry>
        </mxCell>
        <mxCell id="FpnxJUQAzf8VFt7mKJb3-56" style="edgeStyle=orthogonalEdgeStyle;rounded=0;orthogonalLoop=1;jettySize=auto;html=1;exitX=0.75;exitY=1;exitDx=0;exitDy=0;entryX=1.001;entryY=0.751;entryDx=0;entryDy=0;entryPerimeter=0;fontSize=18;" parent="1" source="FpnxJUQAzf8VFt7mKJb3-4" target="FpnxJUQAzf8VFt7mKJb3-26" edge="1">
          <mxGeometry relative="1" as="geometry">
            <Array as="points">
              <mxPoint x="120" y="560" />
              <mxPoint x="120" y="630" />
            </Array>
          </mxGeometry>
        </mxCell>
        <mxCell id="FpnxJUQAzf8VFt7mKJb3-57" style="edgeStyle=orthogonalEdgeStyle;rounded=0;orthogonalLoop=1;jettySize=auto;html=1;exitX=1;exitY=0.5;exitDx=0;exitDy=0;entryX=1.001;entryY=0.739;entryDx=0;entryDy=0;entryPerimeter=0;fontSize=18;" parent="1" source="FpnxJUQAzf8VFt7mKJb3-4" target="FpnxJUQAzf8VFt7mKJb3-27" edge="1">
          <mxGeometry relative="1" as="geometry">
            <Array as="points">
              <mxPoint x="140" y="560" />
              <mxPoint x="120" y="560" />
              <mxPoint x="120" y="700" />
            </Array>
          </mxGeometry>
        </mxCell>
        <mxCell id="FpnxJUQAzf8VFt7mKJb3-58" style="edgeStyle=orthogonalEdgeStyle;rounded=0;orthogonalLoop=1;jettySize=auto;html=1;exitX=1;exitY=0.5;exitDx=0;exitDy=0;entryX=0.5;entryY=0;entryDx=0;entryDy=0;fontSize=18;" parent="1" source="FpnxJUQAzf8VFt7mKJb3-4" target="FpnxJUQAzf8VFt7mKJb3-29" edge="1">
          <mxGeometry relative="1" as="geometry">
            <Array as="points">
              <mxPoint x="150" y="530" />
              <mxPoint x="150" y="770" />
            </Array>
          </mxGeometry>
        </mxCell>
        <mxCell id="FpnxJUQAzf8VFt7mKJb3-4" value="EducaciÃ³n" style="rounded=0;whiteSpace=wrap;html=1;fontSize=18;" parent="1" vertex="1">
          <mxGeometry x="20" y="500" width="120" height="60" as="geometry" />
        </mxCell>
        <mxCell id="FpnxJUQAzf8VFt7mKJb3-50" style="edgeStyle=orthogonalEdgeStyle;rounded=0;orthogonalLoop=1;jettySize=auto;html=1;exitX=0.5;exitY=1;exitDx=0;exitDy=0;entryX=1;entryY=0.5;entryDx=0;entryDy=0;fontSize=18;" parent="1" source="FpnxJUQAzf8VFt7mKJb3-5" target="FpnxJUQAzf8VFt7mKJb3-33" edge="1">
          <mxGeometry relative="1" as="geometry" />
        </mxCell>
        <mxCell id="FpnxJUQAzf8VFt7mKJb3-51" style="edgeStyle=orthogonalEdgeStyle;rounded=0;orthogonalLoop=1;jettySize=auto;html=1;exitX=0.5;exitY=1;exitDx=0;exitDy=0;entryX=0;entryY=0.5;entryDx=0;entryDy=0;fontSize=18;" parent="1" source="FpnxJUQAzf8VFt7mKJb3-5" target="FpnxJUQAzf8VFt7mKJb3-30" edge="1">
          <mxGeometry relative="1" as="geometry" />
        </mxCell>
        <mxCell id="FpnxJUQAzf8VFt7mKJb3-52" style="edgeStyle=orthogonalEdgeStyle;rounded=0;orthogonalLoop=1;jettySize=auto;html=1;exitX=0.5;exitY=1;exitDx=0;exitDy=0;entryX=1;entryY=0;entryDx=0;entryDy=0;fontSize=18;" parent="1" source="FpnxJUQAzf8VFt7mKJb3-5" target="FpnxJUQAzf8VFt7mKJb3-32" edge="1">
          <mxGeometry relative="1" as="geometry">
            <Array as="points">
              <mxPoint x="305" y="650" />
              <mxPoint x="280" y="650" />
            </Array>
          </mxGeometry>
        </mxCell>
        <mxCell id="FpnxJUQAzf8VFt7mKJb3-53" style="edgeStyle=orthogonalEdgeStyle;rounded=0;orthogonalLoop=1;jettySize=auto;html=1;exitX=0.5;exitY=1;exitDx=0;exitDy=0;entryX=0;entryY=0;entryDx=0;entryDy=0;fontSize=18;" parent="1" source="FpnxJUQAzf8VFt7mKJb3-5" target="FpnxJUQAzf8VFt7mKJb3-31" edge="1">
          <mxGeometry relative="1" as="geometry">
            <Array as="points">
              <mxPoint x="305" y="650" />
              <mxPoint x="310" y="650" />
            </Array>
          </mxGeometry>
        </mxCell>
        <mxCell id="FpnxJUQAzf8VFt7mKJb3-5" value="Experiencia" style="rounded=0;whiteSpace=wrap;html=1;fontSize=18;" parent="1" vertex="1">
          <mxGeometry x="245" y="500" width="120" height="60" as="geometry" />
        </mxCell>
        <mxCell id="FpnxJUQAzf8VFt7mKJb3-20" style="edgeStyle=orthogonalEdgeStyle;rounded=0;orthogonalLoop=1;jettySize=auto;html=1;exitX=0.5;exitY=1;exitDx=0;exitDy=0;entryX=0.5;entryY=0;entryDx=0;entryDy=0;fontSize=14;" parent="1" source="FpnxJUQAzf8VFt7mKJb3-7" target="FpnxJUQAzf8VFt7mKJb3-5" edge="1">
          <mxGeometry relative="1" as="geometry">
            <Array as="points">
              <mxPoint x="410" y="440" />
              <mxPoint x="305" y="440" />
            </Array>
          </mxGeometry>
        </mxCell>
        <mxCell id="FpnxJUQAzf8VFt7mKJb3-21" style="edgeStyle=orthogonalEdgeStyle;rounded=0;orthogonalLoop=1;jettySize=auto;html=1;exitX=0.5;exitY=1;exitDx=0;exitDy=0;entryX=0.636;entryY=-0.039;entryDx=0;entryDy=0;entryPerimeter=0;fontSize=14;" parent="1" source="FpnxJUQAzf8VFt7mKJb3-7" target="FpnxJUQAzf8VFt7mKJb3-3" edge="1">
          <mxGeometry relative="1" as="geometry">
            <Array as="points">
              <mxPoint x="410" y="440" />
              <mxPoint x="776" y="440" />
            </Array>
          </mxGeometry>
        </mxCell>
        <mxCell id="FpnxJUQAzf8VFt7mKJb3-22" style="edgeStyle=orthogonalEdgeStyle;rounded=0;orthogonalLoop=1;jettySize=auto;html=1;exitX=0.5;exitY=1;exitDx=0;exitDy=0;entryX=0.5;entryY=0;entryDx=0;entryDy=0;fontSize=14;" parent="1" source="FpnxJUQAzf8VFt7mKJb3-7" target="FpnxJUQAzf8VFt7mKJb3-4" edge="1">
          <mxGeometry relative="1" as="geometry">
            <Array as="points">
              <mxPoint x="410" y="440" />
              <mxPoint x="80" y="440" />
            </Array>
          </mxGeometry>
        </mxCell>
        <mxCell id="FpnxJUQAzf8VFt7mKJb3-24" style="edgeStyle=orthogonalEdgeStyle;rounded=0;orthogonalLoop=1;jettySize=auto;html=1;exitX=0.5;exitY=1;exitDx=0;exitDy=0;entryX=0.5;entryY=0;entryDx=0;entryDy=0;fontSize=18;" parent="1" source="FpnxJUQAzf8VFt7mKJb3-7" target="FpnxJUQAzf8VFt7mKJb3-23" edge="1">
          <mxGeometry relative="1" as="geometry">
            <Array as="points">
              <mxPoint x="410" y="440" />
              <mxPoint x="550" y="440" />
            </Array>
          </mxGeometry>
        </mxCell>
        <mxCell id="FpnxJUQAzf8VFt7mKJb3-67" style="edgeStyle=orthogonalEdgeStyle;rounded=0;orthogonalLoop=1;jettySize=auto;html=1;exitX=1;exitY=0.5;exitDx=0;exitDy=0;entryX=0;entryY=0.5;entryDx=0;entryDy=0;fontSize=18;" parent="1" source="FpnxJUQAzf8VFt7mKJb3-7" target="FpnxJUQAzf8VFt7mKJb3-66" edge="1">
          <mxGeometry relative="1" as="geometry" />
        </mxCell>
        <mxCell id="FpnxJUQAzf8VFt7mKJb3-7" value="Tiene" style="shape=rhombus;perimeter=rhombusPerimeter;whiteSpace=wrap;html=1;align=center;fontSize=18;" parent="1" vertex="1">
          <mxGeometry x="350" y="290" width="120" height="60" as="geometry" />
        </mxCell>
        <mxCell id="FpnxJUQAzf8VFt7mKJb3-9" value="&lt;font style=&quot;font-size: 14px;&quot;&gt;Nombre&lt;/font&gt;" style="ellipse;whiteSpace=wrap;html=1;align=center;fontSize=18;" parent="1" vertex="1">
          <mxGeometry x="105" y="90" width="100" height="40" as="geometry" />
        </mxCell>
        <mxCell id="FpnxJUQAzf8VFt7mKJb3-11" value="&lt;font style=&quot;font-size: 14px;&quot;&gt;Fecha de nacimiento&lt;/font&gt;" style="ellipse;whiteSpace=wrap;html=1;align=center;fontSize=18;" parent="1" vertex="1">
          <mxGeometry x="-5" y="90" width="100" height="60" as="geometry" />
        </mxCell>
        <mxCell id="FpnxJUQAzf8VFt7mKJb3-13" value="DNI" style="ellipse;whiteSpace=wrap;html=1;align=center;fontSize=14;" parent="1" vertex="1">
          <mxGeometry x="215" y="90" width="100" height="40" as="geometry" />
        </mxCell>
        <mxCell id="FpnxJUQAzf8VFt7mKJb3-43" value="" style="edgeStyle=orthogonalEdgeStyle;rounded=0;orthogonalLoop=1;jettySize=auto;html=1;fontSize=18;" parent="1" source="FpnxJUQAzf8VFt7mKJb3-23" target="FpnxJUQAzf8VFt7mKJb3-38" edge="1">
          <mxGeometry relative="1" as="geometry">
            <Array as="points">
              <mxPoint x="550" y="650" />
              <mxPoint x="600" y="650" />
            </Array>
          </mxGeometry>
        </mxCell>
        <mxCell id="FpnxJUQAzf8VFt7mKJb3-44" style="edgeStyle=orthogonalEdgeStyle;rounded=0;orthogonalLoop=1;jettySize=auto;html=1;exitX=0.5;exitY=1;exitDx=0;exitDy=0;entryX=1;entryY=0.5;entryDx=0;entryDy=0;fontSize=18;" parent="1" source="FpnxJUQAzf8VFt7mKJb3-23" target="FpnxJUQAzf8VFt7mKJb3-35" edge="1">
          <mxGeometry relative="1" as="geometry" />
        </mxCell>
        <mxCell id="FpnxJUQAzf8VFt7mKJb3-45" style="edgeStyle=orthogonalEdgeStyle;rounded=0;orthogonalLoop=1;jettySize=auto;html=1;exitX=0.5;exitY=1;exitDx=0;exitDy=0;entryX=0;entryY=0.5;entryDx=0;entryDy=0;fontSize=18;" parent="1" source="FpnxJUQAzf8VFt7mKJb3-23" target="FpnxJUQAzf8VFt7mKJb3-34" edge="1">
          <mxGeometry relative="1" as="geometry" />
        </mxCell>
        <mxCell id="FpnxJUQAzf8VFt7mKJb3-46" style="edgeStyle=orthogonalEdgeStyle;rounded=0;orthogonalLoop=1;jettySize=auto;html=1;entryX=0.5;entryY=0;entryDx=0;entryDy=0;fontSize=18;" parent="1" source="FpnxJUQAzf8VFt7mKJb3-23" target="FpnxJUQAzf8VFt7mKJb3-36" edge="1">
          <mxGeometry relative="1" as="geometry">
            <Array as="points">
              <mxPoint x="550" y="650" />
              <mxPoint x="500" y="650" />
            </Array>
          </mxGeometry>
        </mxCell>
        <mxCell id="FpnxJUQAzf8VFt7mKJb3-23" value="&lt;font style=&quot;font-size: 18px;&quot;&gt;Contacto&lt;/font&gt;" style="whiteSpace=wrap;html=1;align=center;fontSize=14;" parent="1" vertex="1">
          <mxGeometry x="490" y="500" width="120" height="60" as="geometry" />
        </mxCell>
        <mxCell id="FpnxJUQAzf8VFt7mKJb3-26" value="&lt;span style=&quot;border-bottom: 1px dotted&quot;&gt;Lugar&lt;/span&gt;" style="ellipse;whiteSpace=wrap;html=1;align=center;fontSize=18;" parent="1" vertex="1">
          <mxGeometry y="600" width="100" height="40" as="geometry" />
        </mxCell>
        <mxCell id="FpnxJUQAzf8VFt7mKJb3-27" value="&lt;span style=&quot;border-bottom: 1px dotted&quot;&gt;Carrera&lt;/span&gt;" style="ellipse;whiteSpace=wrap;html=1;align=center;fontSize=18;" parent="1" vertex="1">
          <mxGeometry y="670" width="100" height="40" as="geometry" />
        </mxCell>
        <mxCell id="FpnxJUQAzf8VFt7mKJb3-28" value="&lt;span style=&quot;border-bottom: 1px dotted&quot;&gt;Inicio&lt;/span&gt;" style="ellipse;whiteSpace=wrap;html=1;align=center;fontSize=18;" parent="1" vertex="1">
          <mxGeometry y="740" width="100" height="40" as="geometry" />
        </mxCell>
        <mxCell id="FpnxJUQAzf8VFt7mKJb3-29" value="&lt;span style=&quot;border-bottom: 1px dotted&quot;&gt;Final&lt;/span&gt;" style="ellipse;whiteSpace=wrap;html=1;align=center;fontSize=18;" parent="1" vertex="1">
          <mxGeometry x="95" y="770" width="100" height="40" as="geometry" />
        </mxCell>
        <mxCell id="FpnxJUQAzf8VFt7mKJb3-30" value="&lt;span style=&quot;border-bottom: 1px dotted&quot;&gt;Lugar&lt;/span&gt;" style="ellipse;whiteSpace=wrap;html=1;align=center;fontSize=18;" parent="1" vertex="1">
          <mxGeometry x="325" y="600" width="100" height="40" as="geometry" />
        </mxCell>
        <mxCell id="FpnxJUQAzf8VFt7mKJb3-31" value="&lt;span style=&quot;border-bottom: 1px dotted&quot;&gt;Carrera&lt;/span&gt;" style="ellipse;whiteSpace=wrap;html=1;align=center;fontSize=18;" parent="1" vertex="1">
          <mxGeometry x="295" y="670" width="100" height="40" as="geometry" />
        </mxCell>
        <mxCell id="FpnxJUQAzf8VFt7mKJb3-32" value="&lt;span style=&quot;border-bottom: 1px dotted&quot;&gt;Inicio&lt;/span&gt;" style="ellipse;whiteSpace=wrap;html=1;align=center;fontSize=18;" parent="1" vertex="1">
          <mxGeometry x="195" y="670" width="100" height="40" as="geometry" />
        </mxCell>
        <mxCell id="FpnxJUQAzf8VFt7mKJb3-33" value="&lt;span style=&quot;border-bottom: 1px dotted&quot;&gt;Final&lt;/span&gt;" style="ellipse;whiteSpace=wrap;html=1;align=center;fontSize=18;" parent="1" vertex="1">
          <mxGeometry x="165" y="600" width="100" height="40" as="geometry" />
        </mxCell>
        <mxCell id="FpnxJUQAzf8VFt7mKJb3-34" value="&lt;span style=&quot;border-bottom: 1px dotted&quot;&gt;E-mail&lt;/span&gt;" style="ellipse;whiteSpace=wrap;html=1;align=center;fontSize=18;" parent="1" vertex="1">
          <mxGeometry x="580" y="600" width="100" height="40" as="geometry" />
        </mxCell>
        <mxCell id="FpnxJUQAzf8VFt7mKJb3-35" value="Red Social" style="ellipse;whiteSpace=wrap;html=1;align=center;fontSize=18;" parent="1" vertex="1">
          <mxGeometry x="430" y="600" width="100" height="40" as="geometry" />
        </mxCell>
        <mxCell id="FpnxJUQAzf8VFt7mKJb3-36" value="Telefono" style="ellipse;whiteSpace=wrap;html=1;align=center;fontSize=18;" parent="1" vertex="1">
          <mxGeometry x="450" y="670" width="100" height="40" as="geometry" />
        </mxCell>
        <mxCell id="FpnxJUQAzf8VFt7mKJb3-38" value="Mensajeria" style="ellipse;whiteSpace=wrap;html=1;align=center;fontSize=18;" parent="1" vertex="1">
          <mxGeometry x="550" y="670" width="100" height="40" as="geometry" />
        </mxCell>
        <mxCell id="FpnxJUQAzf8VFt7mKJb3-39" value="&lt;span style=&quot;border-bottom: 1px dotted&quot;&gt;Soft&lt;/span&gt;" style="ellipse;whiteSpace=wrap;html=1;align=center;fontSize=18;" parent="1" vertex="1">
          <mxGeometry x="740" y="600" width="100" height="40" as="geometry" />
        </mxCell>
        <mxCell id="FpnxJUQAzf8VFt7mKJb3-40" value="&lt;span style=&quot;border-bottom: 1px dotted&quot;&gt;Hard&lt;/span&gt;" style="ellipse;whiteSpace=wrap;html=1;align=center;fontSize=18;" parent="1" vertex="1">
          <mxGeometry x="650" y="640" width="100" height="40" as="geometry" />
        </mxCell>
        <mxCell id="FpnxJUQAzf8VFt7mKJb3-72" style="edgeStyle=orthogonalEdgeStyle;rounded=0;orthogonalLoop=1;jettySize=auto;html=1;exitX=0.5;exitY=0;exitDx=0;exitDy=0;entryX=0.5;entryY=1;entryDx=0;entryDy=0;fontSize=18;" parent="1" source="FpnxJUQAzf8VFt7mKJb3-66" target="FpnxJUQAzf8VFt7mKJb3-68" edge="1">
          <mxGeometry relative="1" as="geometry" />
        </mxCell>
        <mxCell id="FpnxJUQAzf8VFt7mKJb3-73" style="edgeStyle=orthogonalEdgeStyle;rounded=0;orthogonalLoop=1;jettySize=auto;html=1;exitX=0.5;exitY=0;exitDx=0;exitDy=0;entryX=0.5;entryY=1;entryDx=0;entryDy=0;fontSize=18;" parent="1" source="FpnxJUQAzf8VFt7mKJb3-66" target="FpnxJUQAzf8VFt7mKJb3-70" edge="1">
          <mxGeometry relative="1" as="geometry" />
        </mxCell>
        <mxCell id="FpnxJUQAzf8VFt7mKJb3-74" style="edgeStyle=orthogonalEdgeStyle;rounded=0;orthogonalLoop=1;jettySize=auto;html=1;exitX=0.5;exitY=0;exitDx=0;exitDy=0;entryX=0.5;entryY=1;entryDx=0;entryDy=0;fontSize=18;" parent="1" source="FpnxJUQAzf8VFt7mKJb3-66" target="FpnxJUQAzf8VFt7mKJb3-69" edge="1">
          <mxGeometry relative="1" as="geometry" />
        </mxCell>
        <mxCell id="FpnxJUQAzf8VFt7mKJb3-75" style="edgeStyle=orthogonalEdgeStyle;rounded=0;orthogonalLoop=1;jettySize=auto;html=1;exitX=0.5;exitY=0;exitDx=0;exitDy=0;fontSize=18;entryX=0.5;entryY=1;entryDx=0;entryDy=0;" parent="1" source="FpnxJUQAzf8VFt7mKJb3-66" target="FpnxJUQAzf8VFt7mKJb3-71" edge="1">
          <mxGeometry relative="1" as="geometry">
            <mxPoint x="800" y="210" as="targetPoint" />
          </mxGeometry>
        </mxCell>
        <mxCell id="FpnxJUQAzf8VFt7mKJb3-66" value="Residencia" style="whiteSpace=wrap;html=1;align=center;fontSize=18;" parent="1" vertex="1">
          <mxGeometry x="610" y="290" width="115" height="60" as="geometry" />
        </mxCell>
        <mxCell id="FpnxJUQAzf8VFt7mKJb3-68" value="Localidad" style="ellipse;whiteSpace=wrap;html=1;align=center;fontSize=18;" parent="1" vertex="1">
          <mxGeometry x="565" y="110" width="100" height="40" as="geometry" />
        </mxCell>
        <mxCell id="FpnxJUQAzf8VFt7mKJb3-69" value="&lt;span style=&quot;border-bottom: 1px dotted&quot;&gt;Provincia&lt;/span&gt;" style="ellipse;whiteSpace=wrap;html=1;align=center;fontSize=18;" parent="1" vertex="1">
          <mxGeometry x="485" y="160" width="100" height="40" as="geometry" />
        </mxCell>
        <mxCell id="FpnxJUQAzf8VFt7mKJb3-70" value="&lt;span style=&quot;border-bottom: 1px dotted&quot;&gt;Partido&lt;/span&gt;" style="ellipse;whiteSpace=wrap;html=1;align=center;fontSize=18;" parent="1" vertex="1">
          <mxGeometry x="675" y="110" width="100" height="40" as="geometry" />
        </mxCell>
        <mxCell id="FpnxJUQAzf8VFt7mKJb3-71" value="&lt;span style=&quot;border-bottom: 1px dotted&quot;&gt;Calle&lt;/span&gt;" style="ellipse;whiteSpace=wrap;html=1;align=center;fontSize=18;" parent="1" vertex="1">
          <mxGeometry x="750" y="160" width="100" height="40" as="geometry" />
        </mxCell>
        <mxCell id="mpaSI0RDURgCC3Os-YWc-1" value="1:1" style="text;strokeColor=none;fillColor=none;spacingLeft=4;spacingRight=4;overflow=hidden;rotatable=0;points=[[0,0.5],[1,0.5]];portConstraint=eastwest;fontSize=12;" vertex="1" parent="1">
          <mxGeometry x="165" y="240" width="40" height="30" as="geometry" />
        </mxCell>
        <mxCell id="mpaSI0RDURgCC3Os-YWc-2" value="1:1" style="text;strokeColor=none;fillColor=none;spacingLeft=4;spacingRight=4;overflow=hidden;rotatable=0;points=[[0,0.5],[1,0.5]];portConstraint=eastwest;fontSize=12;" vertex="1" parent="1">
          <mxGeometry x="685" y="250" width="40" height="30" as="geometry" />
        </mxCell>
        <mxCell id="mpaSI0RDURgCC3Os-YWc-3" value="1:1" style="text;strokeColor=none;fillColor=none;spacingLeft=4;spacingRight=4;overflow=hidden;rotatable=0;points=[[0,0.5],[1,0.5]];portConstraint=eastwest;fontSize=12;" vertex="1" parent="1">
          <mxGeometry x="510" y="290" width="40" height="30" as="geometry" />
        </mxCell>
        <mxCell id="mpaSI0RDURgCC3Os-YWc-4" value="1:1" style="text;strokeColor=none;fillColor=none;spacingLeft=4;spacingRight=4;overflow=hidden;rotatable=0;points=[[0,0.5],[1,0.5]];portConstraint=eastwest;fontSize=12;" vertex="1" parent="1">
          <mxGeometry x="70" y="640" width="40" height="30" as="geometry" />
        </mxCell>
        <mxCell id="mpaSI0RDURgCC3Os-YWc-5" value="1:1" style="text;strokeColor=none;fillColor=none;spacingLeft=4;spacingRight=4;overflow=hidden;rotatable=0;points=[[0,0.5],[1,0.5]];portConstraint=eastwest;fontSize=12;" vertex="1" parent="1">
          <mxGeometry x="65" y="570" width="40" height="30" as="geometry" />
        </mxCell>
        <mxCell id="mpaSI0RDURgCC3Os-YWc-9" value="1:M" style="text;strokeColor=none;fillColor=none;spacingLeft=4;spacingRight=4;overflow=hidden;rotatable=0;points=[[0,0.5],[1,0.5]];portConstraint=eastwest;fontSize=12;" vertex="1" parent="1">
          <mxGeometry x="90" y="450" width="40" height="30" as="geometry" />
        </mxCell>
        <mxCell id="mpaSI0RDURgCC3Os-YWc-10" value="1:1" style="text;strokeColor=none;fillColor=none;spacingLeft=4;spacingRight=4;overflow=hidden;rotatable=0;points=[[0,0.5],[1,0.5]];portConstraint=eastwest;fontSize=12;" vertex="1" parent="1">
          <mxGeometry x="65" y="710" width="40" height="30" as="geometry" />
        </mxCell>
        <mxCell id="mpaSI0RDURgCC3Os-YWc-11" value="1:1" style="text;strokeColor=none;fillColor=none;spacingLeft=4;spacingRight=4;overflow=hidden;rotatable=0;points=[[0,0.5],[1,0.5]];portConstraint=eastwest;fontSize=12;" vertex="1" parent="1">
          <mxGeometry x="155" y="730" width="45" height="30" as="geometry" />
        </mxCell>
        <mxCell id="mpaSI0RDURgCC3Os-YWc-12" value="1:M" style="text;strokeColor=none;fillColor=none;spacingLeft=4;spacingRight=4;overflow=hidden;rotatable=0;points=[[0,0.5],[1,0.5]];portConstraint=eastwest;fontSize=12;" vertex="1" parent="1">
          <mxGeometry x="315" y="450" width="40" height="30" as="geometry" />
        </mxCell>
        <mxCell id="mpaSI0RDURgCC3Os-YWc-13" value="1:M" style="text;strokeColor=none;fillColor=none;spacingLeft=4;spacingRight=4;overflow=hidden;rotatable=0;points=[[0,0.5],[1,0.5]];portConstraint=eastwest;fontSize=12;" vertex="1" parent="1">
          <mxGeometry x="725" y="450" width="40" height="30" as="geometry" />
        </mxCell>
        <mxCell id="mpaSI0RDURgCC3Os-YWc-14" value="1:M" style="text;strokeColor=none;fillColor=none;spacingLeft=4;spacingRight=4;overflow=hidden;rotatable=0;points=[[0,0.5],[1,0.5]];portConstraint=eastwest;fontSize=12;" vertex="1" parent="1">
          <mxGeometry x="500" y="450" width="40" height="30" as="geometry" />
        </mxCell>
        <mxCell id="mpaSI0RDURgCC3Os-YWc-15" value="1:1" style="text;strokeColor=none;fillColor=none;spacingLeft=4;spacingRight=4;overflow=hidden;rotatable=0;points=[[0,0.5],[1,0.5]];portConstraint=eastwest;fontSize=12;" vertex="1" parent="1">
          <mxGeometry x="255" y="580" width="40" height="30" as="geometry" />
        </mxCell>
        <mxCell id="mpaSI0RDURgCC3Os-YWc-16" value="1:1" style="text;strokeColor=none;fillColor=none;spacingLeft=4;spacingRight=4;overflow=hidden;rotatable=0;points=[[0,0.5],[1,0.5]];portConstraint=eastwest;fontSize=12;" vertex="1" parent="1">
          <mxGeometry x="315" y="580" width="40" height="30" as="geometry" />
        </mxCell>
        <mxCell id="mpaSI0RDURgCC3Os-YWc-17" value="1:1" style="text;strokeColor=none;fillColor=none;spacingLeft=4;spacingRight=4;overflow=hidden;rotatable=0;points=[[0,0.5],[1,0.5]];portConstraint=eastwest;fontSize=12;" vertex="1" parent="1">
          <mxGeometry x="240" y="640" width="40" height="30" as="geometry" />
        </mxCell>
        <mxCell id="mpaSI0RDURgCC3Os-YWc-18" value="1:1" style="text;strokeColor=none;fillColor=none;spacingLeft=4;spacingRight=4;overflow=hidden;rotatable=0;points=[[0,0.5],[1,0.5]];portConstraint=eastwest;fontSize=12;" vertex="1" parent="1">
          <mxGeometry x="325" y="640" width="40" height="30" as="geometry" />
        </mxCell>
        <mxCell id="mpaSI0RDURgCC3Os-YWc-19" value="1:M" style="text;strokeColor=none;fillColor=none;spacingLeft=4;spacingRight=4;overflow=hidden;rotatable=0;points=[[0,0.5],[1,0.5]];portConstraint=eastwest;fontSize=12;" vertex="1" parent="1">
          <mxGeometry x="500" y="570" width="40" height="30" as="geometry" />
        </mxCell>
        <mxCell id="mpaSI0RDURgCC3Os-YWc-20" value="1:M" style="text;strokeColor=none;fillColor=none;spacingLeft=4;spacingRight=4;overflow=hidden;rotatable=0;points=[[0,0.5],[1,0.5]];portConstraint=eastwest;fontSize=12;" vertex="1" parent="1">
          <mxGeometry x="565" y="570" width="40" height="30" as="geometry" />
        </mxCell>
        <mxCell id="mpaSI0RDURgCC3Os-YWc-21" value="1:M" style="text;strokeColor=none;fillColor=none;spacingLeft=4;spacingRight=4;overflow=hidden;rotatable=0;points=[[0,0.5],[1,0.5]];portConstraint=eastwest;fontSize=12;" vertex="1" parent="1">
          <mxGeometry x="605" y="645" width="40" height="30" as="geometry" />
        </mxCell>
        <mxCell id="mpaSI0RDURgCC3Os-YWc-22" value="1:M" style="text;strokeColor=none;fillColor=none;spacingLeft=4;spacingRight=4;overflow=hidden;rotatable=0;points=[[0,0.5],[1,0.5]];portConstraint=eastwest;fontSize=12;" vertex="1" parent="1">
          <mxGeometry x="460" y="645" width="40" height="30" as="geometry" />
        </mxCell>
        <mxCell id="mpaSI0RDURgCC3Os-YWc-23" value="1:M" style="text;strokeColor=none;fillColor=none;spacingLeft=4;spacingRight=4;overflow=hidden;rotatable=0;points=[[0,0.5],[1,0.5]];portConstraint=eastwest;fontSize=12;" vertex="1" parent="1">
          <mxGeometry x="700" y="600" width="40" height="30" as="geometry" />
        </mxCell>
        <mxCell id="mpaSI0RDURgCC3Os-YWc-24" value="1:M" style="text;strokeColor=none;fillColor=none;spacingLeft=4;spacingRight=4;overflow=hidden;rotatable=0;points=[[0,0.5],[1,0.5]];portConstraint=eastwest;fontSize=12;" vertex="1" parent="1">
          <mxGeometry x="800" y="570" width="40" height="30" as="geometry" />
        </mxCell>
      </root>
    </mxGraphModel>
  </diagram>
</mxfile>
